<?xml version="1.0" encoding="UTF-8"?><svg id="Layer_1" xmlns="http://www.w3.org/2000/svg" xmlns:xlink="http://www.w3.org/1999/xlink" viewBox="0 0 34.13 34.13"><defs><style>.cls-1{fill:#fff;}.cls-2{clip-path:url(#clippath-2);}.cls-3{clip-path:url(#clippath-4);}.cls-4{clip-path:url(#clippath);}.cls-5{opacity:.71;}</style><clipPath id="clippath"><path class="cls-1" d="M191.94,16.41v17.04h3.95V16.41c0-6.59,5.36-11.96,11.96-11.96s11.96,5.36,11.96,11.96v17.04h3.95V16.41c0-8.77-7.14-15.91-15.91-15.91s-15.91,7.14-15.91,15.91"/></clipPath><clipPath id="clippath-2"><path class="cls-1" d="M191.94,16.41v17.04h3.95V16.41c0-6.59,5.36-11.96,11.96-11.96s11.96,5.36,11.96,11.96v17.04h3.95V16.41c0-8.77-7.14-15.91-15.91-15.91s-15.91,7.14-15.91,15.91"/></clipPath><clipPath id="clippath-4"><path class="cls-1" d="M178.39,16.41v17.04h3.95V16.41c0-6.59,5.36-11.96,11.96-11.96s11.96,5.36,11.96,11.96v17.04h3.95V16.41c0-8.77-7.14-15.91-15.91-15.91s-15.91,7.14-15.91,15.91"/></clipPath></defs><g><path class="cls-1" d="M25.81,34.07H8.26c-4.55,0-8.26-3.71-8.26-8.26V8.26C0,3.71,3.71,0,8.26,0H25.81c4.55,0,8.26,3.71,8.26,8.26V25.81c0,4.55-3.71,8.26-8.26,8.26ZM8.26,.5C3.98,.5,.5,3.98,.5,8.26V25.81c0,4.28,3.48,7.76,7.76,7.76H25.81c4.28,0,7.76-3.48,7.76-7.76V8.26c0-4.28-3.48-7.76-7.76-7.76H8.26Z"/><path class="cls-1" d="M9.31,21.89c1.4,.9,3.07,1.42,4.86,1.42,5.88,0,9.21-4.97,9.01-9.43,.62-.45,1.16-1,1.58-1.64-.57,.25-1.18,.42-1.82,.5,.65-.39,1.16-1.01,1.39-1.75-.61,.36-1.29,.63-2.01,.77-.58-.62-1.4-1-2.31-1-2.05,0-3.55,1.91-3.09,3.89-2.63-.13-4.97-1.39-6.53-3.31-.83,1.42-.43,3.29,.98,4.23-.52-.02-1.01-.16-1.44-.4-.03,1.47,1.02,2.84,2.54,3.15-.45,.12-.93,.15-1.43,.05,.4,1.26,1.57,2.18,2.96,2.2-1.33,1.04-3.01,1.51-4.69,1.31Z"/></g><g class="cls-5"><g><path class="cls-1" d="M191.94,16.41v17.04h3.95V16.41c0-6.59,5.36-11.96,11.96-11.96s11.96,5.36,11.96,11.96v17.04h3.95V16.41c0-8.77-7.14-15.91-15.91-15.91s-15.91,7.14-15.91,15.91"/><g class="cls-4"><rect class="cls-1" x="20.48" y="-85.69" width="361.24" height="255.7"/></g></g><g><path class="cls-1" d="M191.94,16.41v17.04h3.95V16.41c0-6.59,5.36-11.96,11.96-11.96s11.96,5.36,11.96,11.96v17.04h3.95V16.41c0-8.77-7.14-15.91-15.91-15.91s-15.91,7.14-15.91,15.91"/><g class="cls-2"><rect class="cls-1" x="20.48" y="-85.69" width="361.24" height="255.7"/></g></g><g><path class="cls-1" d="M178.39,16.41v17.04h3.95V16.41c0-6.59,5.36-11.96,11.96-11.96s11.96,5.36,11.96,11.96v17.04h3.95V16.41c0-8.77-7.14-15.91-15.91-15.91s-15.91,7.14-15.91,15.91"/><g class="cls-3"><rect class="cls-1" x="20.48" y="-85.69" width="361.24" height="255.7"/></g></g></g></svg>