<?xml version="1.0" encoding="UTF-8"?><svg id="Layer_1" xmlns="http://www.w3.org/2000/svg" xmlns:xlink="http://www.w3.org/1999/xlink" viewBox="0 0 34.13 34.13"><defs><style>.cls-1{fill:#fff;}.cls-2{clip-path:url(#clippath-2);}.cls-3{clip-path:url(#clippath-4);}.cls-4{clip-path:url(#clippath);}.cls-5{fill:none;}.cls-6{opacity:.71;}</style><clipPath id="clippath"><path class="cls-1" d="M145.64,16.41v17.04h3.95V16.41c0-6.59,5.36-11.96,11.96-11.96s11.96,5.36,11.96,11.96v17.04h3.95V16.41c0-8.77-7.14-15.91-15.91-15.91s-15.91,7.14-15.91,15.91"/></clipPath><clipPath id="clippath-2"><path class="cls-1" d="M145.64,16.41v17.04h3.95V16.41c0-6.59,5.36-11.96,11.96-11.96s11.96,5.36,11.96,11.96v17.04h3.95V16.41c0-8.77-7.14-15.91-15.91-15.91s-15.91,7.14-15.91,15.91"/></clipPath><clipPath id="clippath-4"><path class="cls-1" d="M132.09,16.41v17.04h3.95V16.41c0-6.59,5.36-11.96,11.96-11.96s11.96,5.36,11.96,11.96v17.04h3.95V16.41c0-8.77-7.14-15.91-15.91-15.91s-15.91,7.14-15.91,15.91"/></clipPath><clipPath id="clippath-6"><path class="cls-5" d="M318.76-147.26v46.91h10.89v-46.91c0-18.16,14.77-32.93,32.92-32.93s32.93,14.77,32.93,32.93v46.91h10.89v-46.91c0-24.16-19.65-43.81-43.81-43.81s-43.81,19.66-43.81,43.81"/></clipPath><clipPath id="clippath-8"><path class="cls-5" d="M318.76-147.26v46.91h10.89v-46.91c0-18.16,14.77-32.93,32.92-32.93s32.93,14.77,32.93,32.93v46.91h10.89v-46.91c0-24.16-19.65-43.81-43.81-43.81s-43.81,19.66-43.81,43.81"/></clipPath><clipPath id="clippath-10"><path class="cls-5" d="M281.44-147.26v46.91h10.89v-46.91c0-18.16,14.77-32.93,32.92-32.93s32.93,14.77,32.93,32.93v46.91h10.89v-46.91c0-24.16-19.66-43.81-43.81-43.81s-43.81,19.66-43.81,43.81"/></clipPath><clipPath id="clippath-12"><path class="cls-5" d="M47.76-190.74v46.91h10.89v-46.91c0-18.16,14.77-32.93,32.92-32.93s32.93,14.77,32.93,32.93v46.91h10.89v-46.91c0-24.16-19.65-43.81-43.81-43.81s-43.81,19.66-43.81,43.81"/></clipPath><clipPath id="clippath-14"><path class="cls-5" d="M47.76-190.74v46.91h10.89v-46.91c0-18.16,14.77-32.93,32.92-32.93s32.93,14.77,32.93,32.93v46.91h10.89v-46.91c0-24.16-19.65-43.81-43.81-43.81s-43.81,19.66-43.81,43.81"/></clipPath><clipPath id="clippath-16"><path class="cls-5" d="M10.44-190.74v46.91h10.89v-46.91c0-18.16,14.77-32.93,32.92-32.93s32.93,14.77,32.93,32.93v46.91h10.89v-46.91c0-24.16-19.66-43.81-43.81-43.81s-43.81,19.66-43.81,43.81"/></clipPath></defs><g><path class="cls-1" d="M25.81,34.07H8.26c-4.55,0-8.26-3.71-8.26-8.26V8.26C0,3.71,3.71,0,8.26,0H25.81c4.55,0,8.26,3.71,8.26,8.26V25.81c0,4.55-3.71,8.26-8.26,8.26ZM8.26,.5C3.98,.5,.5,3.98,.5,8.26V25.81c0,4.28,3.48,7.76,7.76,7.76H25.81c4.28,0,7.76-3.48,7.76-7.76V8.26c0-4.28-3.48-7.76-7.76-7.76H8.26Z"/><g><path class="cls-1" d="M17.04,11.79c1.71,0,1.91,0,2.59,.04,.62,.03,.96,.13,1.19,.22,.3,.12,.51,.25,.74,.48,.22,.22,.36,.44,.48,.74,.09,.23,.19,.56,.22,1.19,.03,.68,.04,.88,.04,2.59s0,1.91-.04,2.59c-.03,.62-.13,.96-.22,1.19-.12,.3-.25,.51-.48,.74s-.44,.36-.74,.48c-.23,.09-.56,.19-1.19,.22-.68,.03-.88,.04-2.59,.04s-1.91,0-2.59-.04c-.62-.03-.96-.13-1.19-.22-.3-.12-.51-.25-.74-.48-.22-.22-.36-.44-.48-.74-.09-.23-.19-.56-.22-1.19-.03-.68-.04-.88-.04-2.59s0-1.91,.04-2.59c.03-.62,.13-.96,.22-1.19,.12-.3,.26-.51,.48-.74,.22-.22,.44-.36,.74-.48,.23-.09,.56-.19,1.19-.22,.68-.03,.88-.04,2.59-.04m0-1.15c-1.74,0-1.96,0-2.64,.04-.68,.03-1.15,.14-1.55,.3-.42,.16-.78,.38-1.13,.74-.36,.36-.58,.71-.74,1.13-.16,.41-.27,.87-.3,1.55-.03,.68-.04,.9-.04,2.64s0,1.96,.04,2.64c.03,.68,.14,1.15,.3,1.55,.16,.42,.38,.78,.74,1.13s.71,.58,1.13,.74c.41,.16,.87,.27,1.55,.3,.68,.03,.9,.04,2.64,.04s1.96,0,2.64-.04c.68-.03,1.15-.14,1.55-.3,.42-.16,.78-.38,1.13-.74,.36-.36,.58-.71,.74-1.13,.16-.41,.27-.87,.3-1.55,.03-.68,.04-.9,.04-2.64s0-1.96-.04-2.64c-.03-.68-.14-1.15-.3-1.55-.16-.42-.38-.78-.74-1.13-.36-.36-.71-.58-1.13-.74-.41-.16-.87-.27-1.55-.3-.68-.03-.9-.04-2.64-.04"/><path class="cls-1" d="M17.04,13.75c-1.82,0-3.29,1.47-3.29,3.29s1.47,3.29,3.29,3.29,3.29-1.47,3.29-3.29-1.47-3.29-3.29-3.29m0,5.42c-1.18,0-2.13-.96-2.13-2.13s.96-2.13,2.13-2.13,2.13,.96,2.13,2.13-.96,2.13-2.13,2.13"/><path class="cls-1" d="M21.22,13.62c0,.42-.34,.77-.77,.77s-.77-.34-.77-.77,.34-.77,.77-.77,.77,.34,.77,.77"/></g></g><g class="cls-6"><g><path class="cls-1" d="M145.64,16.41v17.04h3.95V16.41c0-6.59,5.36-11.96,11.96-11.96s11.96,5.36,11.96,11.96v17.04h3.95V16.41c0-8.77-7.14-15.91-15.91-15.91s-15.91,7.14-15.91,15.91"/><g class="cls-4"><rect class="cls-1" x="-25.82" y="-85.69" width="361.24" height="255.7"/></g></g><g><path class="cls-1" d="M145.64,16.41v17.04h3.95V16.41c0-6.59,5.36-11.96,11.96-11.96s11.96,5.36,11.96,11.96v17.04h3.95V16.41c0-8.77-7.14-15.91-15.91-15.91s-15.91,7.14-15.91,15.91"/><g class="cls-2"><rect class="cls-1" x="-25.82" y="-85.69" width="361.24" height="255.7"/></g></g><g><path class="cls-1" d="M132.09,16.41v17.04h3.95V16.41c0-6.59,5.36-11.96,11.96-11.96s11.96,5.36,11.96,11.96v17.04h3.95V16.41c0-8.77-7.14-15.91-15.91-15.91s-15.91,7.14-15.91,15.91"/><g class="cls-3"><rect class="cls-1" x="-25.82" y="-85.69" width="361.24" height="255.7"/></g></g></g></svg>