<?xml version="1.0" encoding="UTF-8"?><svg id="Layer_1" xmlns="http://www.w3.org/2000/svg" xmlns:xlink="http://www.w3.org/1999/xlink" viewBox="0 0 34.13 34.13"><defs><style>.cls-1{fill:#44273a;}.cls-2{fill:none;}</style><clipPath id="clippath"><path class="cls-2" d="M468.89-147.26v46.91h10.89v-46.91c0-18.16,14.77-32.93,32.92-32.93s32.93,14.77,32.93,32.93v46.91h10.89v-46.91c0-24.16-19.65-43.81-43.81-43.81s-43.81,19.66-43.81,43.81"/></clipPath><clipPath id="clippath-2"><path class="cls-2" d="M468.89-147.26v46.91h10.89v-46.91c0-18.16,14.77-32.93,32.92-32.93s32.93,14.77,32.93,32.93v46.91h10.89v-46.91c0-24.16-19.65-43.81-43.81-43.81s-43.81,19.66-43.81,43.81"/></clipPath><clipPath id="clippath-4"><path class="cls-2" d="M431.57-147.26v46.91h10.89v-46.91c0-18.16,14.77-32.93,32.92-32.93s32.93,14.77,32.93,32.93v46.91h10.89v-46.91c0-24.16-19.66-43.81-43.81-43.81s-43.81,19.66-43.81,43.81"/></clipPath><clipPath id="clippath-6"><path class="cls-2" d="M197.89-190.74v46.91h10.89v-46.91c0-18.16,14.77-32.93,32.92-32.93s32.93,14.77,32.93,32.93v46.91h10.89v-46.91c0-24.16-19.65-43.81-43.81-43.81s-43.81,19.66-43.81,43.81"/></clipPath><clipPath id="clippath-8"><path class="cls-2" d="M197.89-190.74v46.91h10.89v-46.91c0-18.16,14.77-32.93,32.92-32.93s32.93,14.77,32.93,32.93v46.91h10.89v-46.91c0-24.16-19.65-43.81-43.81-43.81s-43.81,19.66-43.81,43.81"/></clipPath><clipPath id="clippath-10"><path class="cls-2" d="M160.57-190.74v46.91h10.89v-46.91c0-18.16,14.77-32.93,32.92-32.93s32.93,14.77,32.93,32.93v46.91h10.89v-46.91c0-24.16-19.66-43.81-43.81-43.81s-43.81,19.66-43.81,43.81"/></clipPath></defs><path class="cls-1" d="M28.17,24.18s-1.98,1.43-4.98,1.73c0,0-5.13-9.61,1.03-19.66,0,0-9.31,.8-14.66,10.86,0,0,5.5,12.11,21.26,11.11v5.85s-19.76,1.65-27.57-16.96C3.25,17.1,9.01-.56,30.82,.04V5.9s-7.5,7.15-2.65,18.29Z"/></svg>