<?xml version="1.0" encoding="UTF-8"?><svg id="Layer_1" xmlns="http://www.w3.org/2000/svg" xmlns:xlink="http://www.w3.org/1999/xlink" viewBox="0 0 34.13 34.13"><defs><style>.cls-1{fill:#fff;}.cls-2{clip-path:url(#clippath-2);}.cls-3{fill:#44273a;}.cls-4{clip-path:url(#clippath-4);}.cls-5{clip-path:url(#clippath);}.cls-6{fill:none;}.cls-7{opacity:.71;}</style><clipPath id="clippath"><path class="cls-1" d="M145.64,53.86v17.04h3.95v-17.04c0-6.59,5.36-11.96,11.96-11.96s11.96,5.36,11.96,11.96v17.04h3.95v-17.04c0-8.77-7.14-15.91-15.91-15.91s-15.91,7.14-15.91,15.91"/></clipPath><clipPath id="clippath-2"><path class="cls-1" d="M145.64,53.86v17.04h3.95v-17.04c0-6.59,5.36-11.96,11.96-11.96s11.96,5.36,11.96,11.96v17.04h3.95v-17.04c0-8.77-7.14-15.91-15.91-15.91s-15.91,7.14-15.91,15.91"/></clipPath><clipPath id="clippath-4"><path class="cls-1" d="M132.09,53.86v17.04h3.95v-17.04c0-6.59,5.36-11.96,11.96-11.96s11.96,5.36,11.96,11.96v17.04h3.95v-17.04c0-8.77-7.14-15.91-15.91-15.91s-15.91,7.14-15.91,15.91"/></clipPath><clipPath id="clippath-6"><path class="cls-6" d="M318.76-109.82V-62.91h10.89v-46.91c0-18.16,14.77-32.93,32.92-32.93s32.93,14.77,32.93,32.93V-62.91h10.89v-46.91c0-24.16-19.65-43.81-43.81-43.81s-43.81,19.66-43.81,43.81"/></clipPath><clipPath id="clippath-8"><path class="cls-6" d="M318.76-109.82V-62.91h10.89v-46.91c0-18.16,14.77-32.93,32.92-32.93s32.93,14.77,32.93,32.93V-62.91h10.89v-46.91c0-24.16-19.65-43.81-43.81-43.81s-43.81,19.66-43.81,43.81"/></clipPath><clipPath id="clippath-10"><path class="cls-6" d="M281.44-109.82V-62.91h10.89v-46.91c0-18.16,14.77-32.93,32.92-32.93s32.93,14.77,32.93,32.93V-62.91h10.89v-46.91c0-24.16-19.66-43.81-43.81-43.81s-43.81,19.66-43.81,43.81"/></clipPath><clipPath id="clippath-12"><path class="cls-6" d="M47.76-153.3v46.91h10.89v-46.91c0-18.16,14.77-32.93,32.92-32.93s32.93,14.77,32.93,32.93v46.91h10.89v-46.91c0-24.16-19.65-43.81-43.81-43.81s-43.81,19.66-43.81,43.81"/></clipPath><clipPath id="clippath-14"><path class="cls-6" d="M47.76-153.3v46.91h10.89v-46.91c0-18.16,14.77-32.93,32.92-32.93s32.93,14.77,32.93,32.93v46.91h10.89v-46.91c0-24.16-19.65-43.81-43.81-43.81s-43.81,19.66-43.81,43.81"/></clipPath><clipPath id="clippath-16"><path class="cls-6" d="M10.44-153.3v46.91h10.89v-46.91c0-18.16,14.77-32.93,32.92-32.93s32.93,14.77,32.93,32.93v46.91h10.89v-46.91c0-24.16-19.66-43.81-43.81-43.81s-43.81,19.66-43.81,43.81"/></clipPath></defs><g class="cls-7"><g><path class="cls-1" d="M145.64,53.86v17.04h3.95v-17.04c0-6.59,5.36-11.96,11.96-11.96s11.96,5.36,11.96,11.96v17.04h3.95v-17.04c0-8.77-7.14-15.91-15.91-15.91s-15.91,7.14-15.91,15.91"/><g class="cls-5"><rect class="cls-1" x="-25.82" y="-48.24" width="361.24" height="255.7"/></g></g><g><path class="cls-1" d="M145.64,53.86v17.04h3.95v-17.04c0-6.59,5.36-11.96,11.96-11.96s11.96,5.36,11.96,11.96v17.04h3.95v-17.04c0-8.77-7.14-15.91-15.91-15.91s-15.91,7.14-15.91,15.91"/><g class="cls-2"><rect class="cls-1" x="-25.82" y="-48.24" width="361.24" height="255.7"/></g></g><g><path class="cls-1" d="M132.09,53.86v17.04h3.95v-17.04c0-6.59,5.36-11.96,11.96-11.96s11.96,5.36,11.96,11.96v17.04h3.95v-17.04c0-8.77-7.14-15.91-15.91-15.91s-15.91,7.14-15.91,15.91"/><g class="cls-4"><rect class="cls-1" x="-25.82" y="-48.24" width="361.24" height="255.7"/></g></g></g><path class="cls-3" d="M5.91,9.95s1.98-1.43,4.98-1.73c0,0,5.13,9.61-1.03,19.66,0,0,9.31-.8,14.66-10.86,0,0-5.5-12.11-21.26-11.11V.06S23.02-1.59,30.82,17.03c0,0-5.75,17.66-27.57,17.06v-5.85s7.5-7.15,2.65-18.29Z"/></svg>