<?xml version="1.0" encoding="UTF-8"?><svg id="Layer_1" xmlns="http://www.w3.org/2000/svg" xmlns:xlink="http://www.w3.org/1999/xlink" viewBox="0 0 34.13 34.13"><defs><style>.cls-1,.cls-2{fill:#fff;}.cls-2{fill-rule:evenodd;}.cls-3{clip-path:url(#clippath-2);}.cls-4{clip-path:url(#clippath-4);}.cls-5{clip-path:url(#clippath);}.cls-6{opacity:.71;}</style><clipPath id="clippath"><path class="cls-1" d="M57.47,16.41v17.04h3.95V16.41c0-6.59,5.36-11.96,11.96-11.96s11.96,5.36,11.96,11.96v17.04h3.95V16.41c0-8.77-7.14-15.91-15.91-15.91s-15.91,7.14-15.91,15.91"/></clipPath><clipPath id="clippath-2"><path class="cls-1" d="M57.47,16.41v17.04h3.95V16.41c0-6.59,5.36-11.96,11.96-11.96s11.96,5.36,11.96,11.96v17.04h3.95V16.41c0-8.77-7.14-15.91-15.91-15.91s-15.91,7.14-15.91,15.91"/></clipPath><clipPath id="clippath-4"><path class="cls-1" d="M43.92,16.41v17.04h3.95V16.41c0-6.59,5.36-11.96,11.96-11.96s11.96,5.36,11.96,11.96v17.04h3.95V16.41c0-8.77-7.14-15.91-15.91-15.91s-15.91,7.14-15.91,15.91"/></clipPath></defs><g><path class="cls-1" d="M25.81,34.07H8.26c-4.55,0-8.26-3.71-8.26-8.26V8.26C0,3.71,3.71,0,8.26,0H25.81c4.55,0,8.26,3.71,8.26,8.26V25.81c0,4.55-3.71,8.26-8.26,8.26ZM8.26,.5C3.98,.5,.5,3.98,.5,8.26V25.81c0,4.28,3.48,7.76,7.76,7.76H25.81c4.28,0,7.76-3.48,7.76-7.76V8.26c0-4.28-3.48-7.76-7.76-7.76H8.26Z"/><path class="cls-2" d="M27.86,22.45h0s-.01-.01-.02-.02h0c-.26-.17-.53-.19-.7-.25,0,0-.01,0-.01,0-1.15-.36-2.14-1.14-2.88-2.1-.41-.53-.76-1.11-.98-1.72h0c-.09-.27-.1-.57,.04-.75,0,0,0,0,0,0,.21-.29,.59-.48,.99-.63h0c.45-.16,.94-.33,1.34-.69,0,0,0,0,.01,0,.06-.06,.14-.13,.19-.25,.01-.03,.03-.06,.03-.09,.03-.11,.03-.24-.03-.35h0c-.12-.24-.31-.37-.47-.45h0c-.25-.15-.54-.16-.8-.07h0c-.27,.08-.5,.18-.71,.21,0,0-.01,0-.02,0-.29,.05-.58,.06-.81-.02,0-.03,0-.1-.02-.18h0c-.02-.49,.03-.99,.03-1.51h0c.03-.8,.06-1.61-.06-2.43h0c-.26-1.4-1.15-2.59-2.27-3.38-.82-.58-1.79-.9-2.78-.99h0c-.34-.03-.67-.04-1-.04-1.33,.01-2.72,.36-3.8,1.21-.81,.63-1.45,1.48-1.85,2.42h0c-.39,.97-.35,2-.3,2.95h0c.03,.67,.11,1.32,.05,1.94,0,.02,0,.03-.01,.04-.3,.06-.63,.04-.95-.03h0c-.22-.04-.46-.13-.73-.2,0,0-.01,0-.02,0-.26-.06-.52,.02-.71,.16,0,0-.01,0-.01,0,0,0-.01,0-.01,.01-.16,.1-.38,.28-.39,.58,0,.02,0,.04,0,.06,0,0,0,0,0,0,.03,.18,.14,.31,.24,.4,.1,.09,.19,.14,.25,.19,0,0,0,0,.02,.01,.49,.32,1.03,.47,1.5,.65h0c.32,.14,.6,.36,.67,.64,.08,.35-.07,.76-.26,1.15h0c-.53,1.04-1.31,1.94-2.27,2.61-.51,.35-1.08,.6-1.67,.76,0,0-.02,0-.03,.01-.12,.05-.41,.07-.59,.35-.01,.02-.02,.04-.03,.07-.06,.17,.01,.36,.1,.47,.08,.1,.17,.16,.25,.2,0,0,.01,0,.02,0,.5,.29,1.05,.41,1.54,.54,0,0,0,0,0,0,.36,.08,.7,.12,.96,.24,0,.02,.04,.11,.1,.26,.09,.27,.13,.59,.23,.93,.03,.09,.11,.17,.21,.19,.23,.05,.35-.03,.37-.03h.03c.83-.15,1.67-.27,2.44-.09h0c.8,.21,1.5,.77,2.29,1.24h0c.52,.33,1.13,.65,1.83,.67h0c.53,.03,1.04,0,1.55-.04h.01c.43-.04,.85-.19,1.22-.42,0,0,.01,0,.02,0,.83-.47,1.56-1.04,2.36-1.39h0c.26-.09,.59-.09,.95-.11h.01c.67-.02,1.33,.01,2,.1,.02,0,.05,0,.07,0,.09-.01,.18-.07,.23-.13,.05-.06,.06-.11,.07-.14,.02-.07,.04-.1,0-.04,.01-.02,.02-.04,.03-.06,.12-.4,.19-.76,.39-.98,.09-.09,.24-.13,.41-.13h.04c.58-.07,1.1-.27,1.59-.45,0,0,.02,0,.02,0,.18-.08,.46-.17,.64-.43h0c.16-.22,.08-.52-.14-.65h0Z"/></g><g class="cls-6"><g><path class="cls-1" d="M57.47,16.41v17.04h3.95V16.41c0-6.59,5.36-11.96,11.96-11.96s11.96,5.36,11.96,11.96v17.04h3.95V16.41c0-8.77-7.14-15.91-15.91-15.91s-15.91,7.14-15.91,15.91"/><g class="cls-5"><rect class="cls-1" x="-113.99" y="-85.69" width="361.24" height="255.7"/></g></g><g><path class="cls-1" d="M57.47,16.41v17.04h3.95V16.41c0-6.59,5.36-11.96,11.96-11.96s11.96,5.36,11.96,11.96v17.04h3.95V16.41c0-8.77-7.14-15.91-15.91-15.91s-15.91,7.14-15.91,15.91"/><g class="cls-3"><rect class="cls-1" x="-113.99" y="-85.69" width="361.24" height="255.7"/></g></g><g><path class="cls-1" d="M43.92,16.41v17.04h3.95V16.41c0-6.59,5.36-11.96,11.96-11.96s11.96,5.36,11.96,11.96v17.04h3.95V16.41c0-8.77-7.14-15.91-15.91-15.91s-15.91,7.14-15.91,15.91"/><g class="cls-4"><rect class="cls-1" x="-113.99" y="-85.69" width="361.24" height="255.7"/></g></g></g></svg>